<?xml version="1.0" standalone="no"?>
<!DOCTYPE svg PUBLIC "-//W3C//DTD SVG 20010904//EN"
 "http://www.w3.org/TR/2001/REC-SVG-20010904/DTD/svg10.dtd">
<svg version="1.0" xmlns="http://www.w3.org/2000/svg"
 width="400.000000pt" height="400.000000pt" viewBox="0 0 400.000000 400.000000"
 preserveAspectRatio="xMidYMid meet">
<metadata>
Created by potrace 1.11, written by Peter Selinger 2001-2013
</metadata>
<g transform="translate(0.000000,400.000000) scale(0.100000,-0.100000)"
fill="#000000" stroke="none">
<path d="M0 2000 l0 -2000 2000 0 2000 0 0 2000 0 2000 -2000 0 -2000 0 0
-2000z m2540 1018 c46 -32 71 -68 77 -114 4 -33 -22 -113 -161 -494 -102 -277
-175 -464 -189 -478 -37 -40 -76 -55 -127 -50 -84 8 -140 69 -140 152 0 40
310 906 339 946 42 60 142 78 201 38z m-388 -117 c21 -23 28 -42 28 -71 0 -32
-179 -549 -245 -707 -16 -39 -68 -73 -110 -73 -58 0 -114 55 -115 114 0 36
246 714 268 740 25 28 52 36 102 32 34 -3 51 -11 72 -35z m-349 -61 c48 -38
45 -56 -59 -340 -53 -146 -105 -275 -117 -287 -46 -51 -147 -13 -147 55 0 16
30 109 66 208 36 98 76 208 89 244 12 36 28 77 35 91 23 49 89 63 133 29z
m-263 -62 c11 -12 20 -30 20 -41 0 -19 -121 -361 -142 -401 -15 -29 -28 -36
-65 -36 -34 0 -63 29 -63 62 0 37 141 403 161 421 29 23 64 22 89 -5z m1130
-1246 c31 -15 80 -72 80 -93 0 -5 -11 -9 -25 -9 -18 0 -28 7 -35 25 -6 16 -25
32 -46 41 -113 47 -203 -79 -144 -201 22 -46 53 -65 105 -65 41 0 92 42 97 80
3 24 0 25 -49 28 -45 3 -53 6 -53 23 0 17 7 19 75 19 l76 0 -3 -92 c-2 -65 -7
-93 -16 -96 -7 -2 -16 5 -19 16 -5 20 -5 20 -36 1 -70 -42 -175 -16 -217 53
-93 153 58 347 210 270z m-2345 -127 c27 -74 52 -135 55 -135 3 0 28 61 55
135 l50 135 33 0 32 0 0 -175 c0 -168 -1 -175 -20 -175 -19 0 -20 7 -20 137 0
75 -4 133 -8 128 -5 -6 -28 -64 -52 -130 -23 -66 -46 -124 -50 -128 -5 -5 -16
-6 -26 -3 -13 4 -33 43 -64 128 l-45 123 -5 -125 c-5 -120 -6 -125 -27 -128
l-23 -3 0 175 0 176 33 0 32 0 50 -135z m3446 123 c0 -10 2 -10 6 0 8 20 23
14 23 -11 0 -18 -6 -23 -25 -23 -17 0 -25 5 -25 18 0 26 -18 22 -22 -4 -3 -21
-4 -21 -9 5 -6 24 -4 27 22 27 16 0 29 -6 30 -12z m-2981 -98 c17 -17 20 -33
20 -110 0 -53 4 -90 10 -90 6 0 10 -9 10 -20 0 -15 -7 -20 -25 -20 -14 0 -28
6 -31 14 -5 12 -9 12 -32 0 -36 -18 -92 -18 -120 2 -16 11 -22 25 -22 53 0 49
21 68 90 81 61 12 73 20 68 46 -6 35 -92 30 -103 -6 -3 -11 -15 -20 -26 -20
-27 0 -24 35 6 65 32 33 124 36 155 5z m116 5 c5 -13 8 -13 27 0 30 21 90 19
118 -4 23 -18 24 -26 24 -128 0 -101 -1 -108 -20 -108 -18 0 -20 8 -23 94 -1
52 -8 101 -14 108 -18 23 -65 15 -87 -13 -17 -22 -21 -41 -21 -110 0 -77 -2
-84 -20 -84 -19 0 -20 7 -20 130 0 110 2 130 15 130 9 0 18 -7 21 -15z m264
-1 c0 -14 2 -14 22 0 28 20 80 20 118 1 56 -29 76 -139 35 -202 -28 -43 -110
-58 -153 -27 l-22 15 0 -60 c0 -54 -2 -61 -20 -61 -19 0 -20 7 -20 175 0 168
1 175 20 175 11 0 20 -7 20 -16z m411 0 c77 -40 76 -189 -2 -229 -33 -18 -89
-19 -122 -4 -76 35 -82 194 -8 234 35 19 95 19 132 -1z m117 -1 c5 -10 17 -49
27 -88 10 -38 21 -73 24 -78 4 -4 17 36 30 88 19 78 26 95 42 95 24 0 33 -18
55 -113 10 -42 21 -74 25 -70 3 5 14 40 24 78 23 90 31 105 56 105 15 0 19 -5
15 -17 -72 -231 -77 -243 -96 -243 -25 0 -26 3 -53 106 l-23 87 -25 -94 c-22
-85 -26 -94 -48 -94 -21 0 -27 11 -62 120 -21 66 -39 123 -39 128 0 15 40 6
48 -10z m491 1 c25 -18 51 -71 51 -104 0 -19 -6 -20 -89 -20 -50 0 -92 -4 -95
-8 -9 -15 19 -57 45 -66 35 -12 76 0 84 24 8 25 45 27 45 3 -1 -42 -48 -73
-110 -73 -34 0 -48 6 -76 34 -31 31 -34 39 -34 96 0 57 3 65 34 96 28 28 41
34 78 34 24 0 54 -7 67 -16z m128 -4 c5 -20 5 -20 30 0 36 28 63 26 63 -5 0
-20 -5 -25 -23 -25 -44 0 -62 -34 -66 -127 -3 -71 -6 -84 -20 -81 -14 3 -16
22 -19 131 -2 112 -1 127 14 127 9 0 18 -9 21 -20z m529 5 c5 -13 8 -13 27 0
12 8 32 15 45 15 38 0 26 -42 -15 -52 -18 -5 -36 -14 -40 -21 -4 -6 -10 -50
-13 -97 -5 -77 -7 -85 -25 -85 -19 0 -20 8 -23 114 -1 63 0 121 2 128 7 18 35
17 42 -2z m282 1 c37 -19 57 -59 57 -116 0 -81 -45 -130 -119 -130 -53 0 -84
19 -106 65 -24 49 -25 74 -6 119 28 68 107 96 174 62z m140 -86 c1 -51 8 -100
14 -107 11 -14 56 -17 74 -5 24 16 34 54 34 131 0 74 2 81 20 81 19 0 20 -7
20 -130 0 -110 -2 -130 -15 -130 -9 0 -18 7 -21 15 -5 13 -8 13 -27 0 -24 -17
-80 -20 -107 -5 -27 15 -40 64 -40 155 0 85 4 98 30 93 12 -3 16 -22 18 -98z
m257 90 c4 -7 12 -7 25 0 38 20 98 12 132 -19 31 -28 33 -33 33 -101 0 -68 -2
-73 -33 -101 -37 -33 -93 -39 -130 -13 l-22 15 0 -60 c0 -58 -1 -61 -25 -61
l-25 0 0 168 c0 93 3 172 7 175 10 10 31 8 38 -3z"/>
<path d="M710 1308 c-52 -9 -74 -31 -59 -59 13 -26 70 -25 93 0 10 11 16 30
14 43 -3 22 -6 23 -48 16z"/>
<path d="M1190 1378 c-24 -39 -25 -69 -5 -107 39 -76 135 -41 135 49 0 86 -89
125 -130 58z"/>
<path d="M1469 1391 c-20 -16 -24 -29 -24 -71 0 -42 4 -55 24 -71 54 -44 121
-5 121 71 0 76 -67 115 -121 71z"/>
<path d="M2078 1393 c-34 -41 -32 -43 41 -43 75 0 84 7 51 40 -25 25 -72 26
-92 3z"/>
<path d="M3011 1384 c-30 -38 -28 -98 4 -129 51 -52 125 -13 125 65 0 80 -84
121 -129 64z"/>
<path d="M3550 1390 c-28 -28 -28 -108 0 -138 26 -28 73 -29 100 -2 15 15 20
33 20 70 0 59 -24 90 -70 90 -17 0 -39 -9 -50 -20z"/>
</g>
</svg>
